<svg xmlns="http://www.w3.org/2000/svg">
<!-- Line icons (24x24), drawn for Cafetal. Use: <svg class="i"><use href="icons/icons.svg#camera"/></svg> -->
<defs><style>symbol{fill:none;stroke:currentColor;stroke-width:2;stroke-linecap:round;stroke-linejoin:round}</style></defs>
<symbol id="camera" viewBox="0 0 24 24" fill="none" stroke="currentColor" stroke-width="2" stroke-linecap="round" stroke-linejoin="round"><path d="M4 8h3l2-3h6l2 3h3a1 1 0 0 1 1 1v10a1 1 0 0 1-1 1H4a1 1 0 0 1-1-1V9a1 1 0 0 1 1-1z"/><circle cx="12" cy="13.5" r="3.5"/></symbol>
<symbol id="image" viewBox="0 0 24 24" fill="none" stroke="currentColor" stroke-width="2" stroke-linecap="round" stroke-linejoin="round"><rect x="3" y="4" width="18" height="16" rx="2"/><circle cx="9" cy="10" r="2"/><path d="M3 18l6-6 4 4 3-3 5 5"/></symbol>
<symbol id="speaker" viewBox="0 0 24 24" fill="none" stroke="currentColor" stroke-width="2" stroke-linecap="round" stroke-linejoin="round"><path d="M4 9h4l5-4v14l-5-4H4z"/><path d="M16 9a4 4 0 0 1 0 6M18.5 6.5a8 8 0 0 1 0 11"/></symbol>
<symbol id="send" viewBox="0 0 24 24" fill="none" stroke="currentColor" stroke-width="2" stroke-linecap="round" stroke-linejoin="round"><path d="M21 3L3 11l7 3 3 7z"/><path d="M10 14L21 3"/></symbol>
<symbol id="history" viewBox="0 0 24 24" fill="none" stroke="currentColor" stroke-width="2" stroke-linecap="round" stroke-linejoin="round"><path d="M3.5 12a8.5 8.5 0 1 0 2.5-6L3.5 8.5"/><path d="M3.5 3.5v5h5"/><path d="M12 7.5V12l3 2"/></symbol>
<symbol id="gear" viewBox="0 0 24 24" fill="none" stroke="currentColor" stroke-width="2" stroke-linecap="round" stroke-linejoin="round"><circle cx="12" cy="12" r="3"/><circle cx="12" cy="12" r="7"/><path d="M12 2v3M12 19v3M2 12h3M19 12h3M4.9 4.9 7 7M17 17l2.1 2.1M4.9 19.1 7 17M17 7l2.1-2.1"/></symbol>
<symbol id="trash" viewBox="0 0 24 24" fill="none" stroke="currentColor" stroke-width="2" stroke-linecap="round" stroke-linejoin="round"><path d="M4 7h16M9 7V4h6v3M6 7l1 13h10l1-13M10 11v6M14 11v6"/></symbol>
<symbol id="back" viewBox="0 0 24 24" fill="none" stroke="currentColor" stroke-width="2.5" stroke-linecap="round" stroke-linejoin="round"><path d="M15 5l-7 7 7 7"/></symbol>
<symbol id="arrow" viewBox="0 0 24 24" fill="none" stroke="currentColor" stroke-width="2.5" stroke-linecap="round" stroke-linejoin="round"><path d="M5 12h14M13 6l6 6-6 6"/></symbol>
<symbol id="check" viewBox="0 0 24 24" fill="none" stroke="currentColor" stroke-width="2.5" stroke-linecap="round" stroke-linejoin="round"><path d="M4 12.5l5 5L20 6.5"/></symbol>
<symbol id="x" viewBox="0 0 24 24" fill="none" stroke="currentColor" stroke-width="2.5" stroke-linecap="round" stroke-linejoin="round"><path d="M6 6l12 12M18 6L6 18"/></symbol>
<symbol id="lock" viewBox="0 0 24 24" fill="none" stroke="currentColor" stroke-width="2" stroke-linecap="round" stroke-linejoin="round"><rect x="5" y="11" width="14" height="10" rx="2"/><path d="M8 11V7a4 4 0 0 1 8 0v4"/></symbol>
<symbol id="sync" viewBox="0 0 24 24" fill="none" stroke="currentColor" stroke-width="2" stroke-linecap="round" stroke-linejoin="round"><path d="M7 18a4 4 0 0 1-.6-8A6 6 0 0 1 18 9.5a4.3 4.3 0 0 1-1 8.5"/><path d="M12 12v8M9 15l3-3 3 3"/></symbol>
<symbol id="phone" viewBox="0 0 24 24" fill="none" stroke="currentColor" stroke-width="2" stroke-linecap="round" stroke-linejoin="round"><rect x="7" y="2" width="10" height="20" rx="2"/><path d="M11 18h2"/></symbol>
<symbol id="sms" viewBox="0 0 24 24" fill="none" stroke="currentColor" stroke-width="2" stroke-linecap="round" stroke-linejoin="round"><path d="M4 5h16v11H9l-5 4z"/><path d="M8 9h8M8 12h5"/></symbol>
<symbol id="leaf" viewBox="0 0 24 24" fill="none" stroke="currentColor" stroke-width="2" stroke-linecap="round" stroke-linejoin="round"><path d="M5 19C5 10 10 5 20 4c0 10-5 15-14 15z"/><path d="M5 19l9-9"/></symbol>
<symbol id="globe" viewBox="0 0 24 24" fill="none" stroke="currentColor" stroke-width="2" stroke-linecap="round" stroke-linejoin="round"><circle cx="12" cy="12" r="9"/><path d="M3 12h18M12 3c3 3 3 15 0 18M12 3c-3 3-3 15 0 18"/></symbol>
<symbol id="person" viewBox="0 0 24 24" fill="none" stroke="currentColor" stroke-width="2" stroke-linecap="round" stroke-linejoin="round"><circle cx="12" cy="8" r="4"/><path d="M4 21c1-4 4-6 8-6s7 2 8 6"/></symbol>
<symbol id="key" viewBox="0 0 24 24" fill="none" stroke="currentColor" stroke-width="2" stroke-linecap="round" stroke-linejoin="round"><circle cx="8" cy="15" r="4"/><path d="M11 12l9-9M16 7l3 3M14 9l2 2"/></symbol>
<symbol id="wifi" viewBox="0 0 24 24" fill="none" stroke="currentColor" stroke-width="2" stroke-linecap="round" stroke-linejoin="round"><path d="M2 9a15 15 0 0 1 20 0M5 12.5a10 10 0 0 1 14 0M8.5 16a5 5 0 0 1 7 0"/><circle cx="12" cy="19.5" r="1"/></symbol>
<symbol id="offline" viewBox="0 0 24 24" fill="none" stroke="currentColor" stroke-width="2" stroke-linecap="round" stroke-linejoin="round"><path d="M12 3v12M7 10l5 5 5-5M5 20h14"/></symbol>
</svg>
