<svg xmlns="http://www.w3.org/2000/svg" viewBox="0 0 64 64"><path d="M32 4C50 14 57 34 32 60C7 34 14 14 32 4Z" fill="#9ccc65" stroke="#1b4d20" stroke-width="2.5"/><path d="M32 9V56M32 22l-9-6M32 22l9-6M32 33l-11-6M32 33l11-6M32 44l-9-5M32 44l9-5" stroke="#1b4d20" stroke-width="1.6" fill="none" stroke-linecap="round" opacity=".55"/><circle cx="24" cy="26" r="4.5" fill="#ef6c00" stroke="#bf360c" stroke-width="1"/><circle cx="38" cy="22" r="3.5" fill="#ef6c00" stroke="#bf360c" stroke-width="1"/><circle cx="27" cy="40" r="5" fill="#ef6c00" stroke="#bf360c" stroke-width="1"/><circle cx="40" cy="37" r="4" fill="#ef6c00" stroke="#bf360c" stroke-width="1"/><circle cx="34" cy="49" r="3.5" fill="#ef6c00" stroke="#bf360c" stroke-width="1"/><circle cx="21" cy="33" r="2.5" fill="#ef6c00" stroke="#bf360c" stroke-width="1"/><circle cx="43" cy="29" r="2.5" fill="#ef6c00" stroke="#bf360c" stroke-width="1"/></svg>
